<svg xmlns="http://www.w3.org/2000/svg" viewBox="0 0 64 64"><defs><radialGradient id="a" gradientUnits="userSpaceOnUse" cy="442.723" cx="-122.394" gradientTransform="matrix(1 0 0 -1 134.446 453.733)" r="29.58"><stop stop-color="#fff" offset="0"/><stop stop-color="#007808" offset="1"/></radialGradient></defs><path fill="#0b4819" d="M6.726 16.34l-4.89-1.177V7.877l4.89 1.685zM10.454 44.192l-4.675.924V18.025l4.675.989z"/><path fill="#105c80" d="M61.986 58.78l-26.65-2.064 13.585-13.18v-6.494L29.5 56.264 6.243 54.466l37.303-40.117-6.139.332-26.953 29.51V19.015L13.007 16l-6.28.34V9.562l21.918-1.697-12.015 13.78v5.864L34.45 7.416 62.675 5.23 21.158 48.505l5.527.29L56.84 17.954v29.15l-3.35 3.15 8.496.459z"/><path fill="#0b4819" d="M10.454 19.014l-4.675-.99 2.704-3.254L13.007 16z"/><path fill="#084010" d="M12.328 27.157v-6.32l4.302.808v5.864z"/><path fill="#0c541e" d="M23.038 50.145l-5.894-.34 4.014-1.3 5.527.29z"/><path fill="#1a5c34" d="M12.328 20.838L25.132 5.905l3.513 1.96-12.015 13.78z"/><path fill="#0b4819" d="M16.63 27.509l-4.302-.352L31.346 5.379l3.104 2.037z"/><path fill="#1a5c34" d="M5.78 45.116L34.52 13.23l2.887 1.45-26.953 29.51z"/><path fill="#0b4819" d="M6.243 54.466l-4.919 1.677L41.122 12.84l2.424 1.508z"/><path fill="#1a5c34" d="M26.045 58.236l20.876-20.76 2-.434L29.5 56.264z"/><path fill="#0b4819" d="M48.921 43.537l-2 .999v-7.06l2-.434z"/><path fill="#0b4819" d="M35.336 56.716l-3.039 2.048 14.624-14.228 2-1z"/><path fill="#13802d" d="M56.84 47.104l-1.348 1.343-3.63 3.41 1.628-1.604z"/><path fill="#0b4819" d="M26.685 48.796l-3.647 1.349 32.454-33.446 1.348 1.254z"/><path fill="#084010" d="M55.492 48.447V16.699l1.348 1.254v29.15zM61.083 61.202v-8.8l.903-1.69v8.068z"/><path fill="#1a5c34" d="M17.144 49.805L61.831 2.799l.844 2.432-41.517 43.274z"/><path fill="url(#a)" d="M59.759 58.403l-28.786-2.438 14.624-14.228v-7.06l-20.876 20.76L0 53.344l39.798-43.302-6.603.39-28.74 31.885V15.226l2.704-3.255-6.648.393V5.078l23.297-1.972-12.804 14.933v6.319L30.022 2.58 60.507 0 15.82 47.006l5.894.34L54.168 13.9v31.748l-3.63 3.411 9.221.545z" transform="translate(1.324 2.799)"/></svg>